<svg width="812" height="463" xmlns="http://www.w3.org/2000/svg" xmlns:xlink="http://www.w3.org/1999/xlink"><defs><linearGradient x1="112.345%" y1="-109.702%" x2="48.618%" y2="106.507%" id="a"><stop stop-color="#2AB7E2" offset="0%"/><stop stop-color="#1D6CB2" offset="100%"/></linearGradient><linearGradient x1="85.766%" y1="-5.035%" x2="48.618%" y2="106.507%" id="b"><stop stop-color="#47B6D8" offset="0%"/><stop stop-color="#1364AB" offset="100%"/></linearGradient><rect id="d" x="3.6" width="2.7" height="74.7" rx="1.35"/><filter x="-1166.7%" y="-30.1%" width="2433.3%" height="184.3%" filterUnits="objectBoundingBox" id="c"><feOffset dy="9" in="SourceAlpha" result="shadowOffsetOuter1"/><feGaussianBlur stdDeviation="9" in="shadowOffsetOuter1" result="shadowBlurOuter1"/><feColorMatrix values="0 0 0 0 0 0 0 0 0 0 0 0 0 0 0 0 0 0 0.1 0" in="shadowBlurOuter1"/></filter><rect id="f" x="3.6" width="2.7" height="74.7" rx="1.35"/><filter x="-1166.7%" y="-30.1%" width="2433.3%" height="184.3%" filterUnits="objectBoundingBox" id="e"><feOffset dy="9" in="SourceAlpha" result="shadowOffsetOuter1"/><feGaussianBlur stdDeviation="9" in="shadowOffsetOuter1" result="shadowBlurOuter1"/><feColorMatrix values="0 0 0 0 0 0 0 0 0 0 0 0 0 0 0 0 0 0 0.1 0" in="shadowBlurOuter1"/></filter><rect id="h" x="3.6" width="2.7" height="74.7" rx="1.35"/><filter x="-1166.7%" y="-30.1%" width="2433.3%" height="184.3%" filterUnits="objectBoundingBox" id="g"><feOffset dy="9" in="SourceAlpha" result="shadowOffsetOuter1"/><feGaussianBlur stdDeviation="9" in="shadowOffsetOuter1" result="shadowBlurOuter1"/><feColorMatrix values="0 0 0 0 0 0 0 0 0 0 0 0 0 0 0 0 0 0 0.1 0" in="shadowBlurOuter1"/></filter><linearGradient x1="76.866%" y1="-6.116%" x2="48.618%" y2="106.507%" id="i"><stop stop-color="#0AF" offset="0%"/><stop stop-color="#024BCD" offset="100%"/></linearGradient><linearGradient x1="50%" y1="0%" x2="50%" y2="100%" id="j"><stop stop-color="#00B7FF" offset="3.017%"/><stop stop-color="#FFF" stop-opacity="0" offset="100%"/></linearGradient><linearGradient x1="0%" y1="-108.003%" x2="0%" y2="100%" id="k"><stop stop-color="#00F1FF" stop-opacity=".5" offset="0%"/><stop stop-color="#00C3FF" stop-opacity="0" offset="100%"/></linearGradient><linearGradient x1="102.918%" y1="-80.399%" x2="18.303%" y2="196.907%" id="l"><stop stop-color="#001B2E" offset="0%"/><stop stop-color="#163491" offset="35.1%"/><stop stop-color="#218EC6" offset="71.52%"/><stop stop-color="#C2F7DF" offset="100%"/></linearGradient><linearGradient x1="102.918%" y1="-80.399%" x2="44.961%" y2="156.111%" id="m"><stop stop-color="#001B2E" offset="0%"/><stop stop-color="#163491" offset="35.1%"/><stop stop-color="#218EC6" offset="71.52%"/><stop stop-color="#C2F7DF" offset="100%"/></linearGradient></defs><g fill="none" fill-rule="evenodd"><path d="M762.329 456.794c.53-2.852-.118-4.596-1.943-5.234-2.737-.955-5.483-.722-7.701-3.758-2.219-3.036-4.223-3.687-7.304-2.629-3.082 1.058-5.879 4.29-10.63 4.329-3.167.026-4.751 2.457-4.751 7.292h32.329z" fill="#A5E5C7"/><path d="M7.181 456.756c-17.063-45.774-3.467-75.532 40.788-89.276 66.383-20.617 63.947-90.799 119.084-145.077 55.137-54.279 130.707-39.742 199.832-44.09 69.125-4.347 83.915-42.214 188.07-12.788 104.153 29.427 137.909 84.958 167.144 144.54 29.236 59.583 92.581 67.063 76.586 146.69H7.181z" fill="#F7FCFF"/><path fill="#F0FAFF" d="M278 110h136v353H278z"/><path fill="#E3F4FC" d="M296 132h100v27H296zm0 47h100v27H296zm0 47h100v27H296zm0 47h100v27H296zm0 47h100v27H296zm0 47h100v27H296zm0 47h100v27H296z"/><path fill="#F0FAFF" d="M297 93h100v17H297zm19-8h60v8h-60zM114 199h134v264H114z"/><path fill="#F0FAFF" d="M177 169h51v294h-51z"/><path d="M126 214h10v230h-10zm100 0h10v230h-10zm-80 0h10v10h-10zm20 0h10v10h-10zm20 0h10v10h-10zm20 0h10v10h-10zm-60 20h10v10h-10zm20 0h10v10h-10zm20 0h10v10h-10zm20 0h10v10h-10zm-60 20h10v10h-10zm20 0h10v10h-10zm20 0h10v10h-10zm20 0h10v10h-10zm-60 20h10v10h-10zm20 0h10v10h-10zm20 0h10v10h-10zm20 0h10v10h-10zm-60 20h10v10h-10zm20 0h10v10h-10zm20 0h10v10h-10zm20 0h10v10h-10zm-60 20h10v10h-10zm20 0h10v10h-10zm20 0h10v10h-10zm20 0h10v10h-10zm-60 20h10v10h-10zm20 0h10v10h-10zm20 0h10v10h-10zm20 0h10v10h-10zm-60 20h10v10h-10zm20 0h10v10h-10zm20 0h10v10h-10zm20 0h10v10h-10zm-60 20h10v10h-10zm20 0h10v10h-10zm20 0h10v10h-10zm20 0h10v10h-10zm-60 20h10v10h-10zm20 0h10v10h-10zm20 0h10v10h-10zm20 0h10v10h-10zm-60 20h10v10h-10zm20 0h10v10h-10zm20 0h10v10h-10zm20 0h10v10h-10zm-60 20h10v10h-10zm20 0h10v10h-10zm20 0h10v10h-10zm20 0h10v10h-10z" fill="#E3F4FC"/><path fill="#F0FAFF" d="M570 163h134v300H570zm12 0h110v-21H582z"/><path d="M582 178h10v230h-10zm100 0h10v230h-10zm-80 0h10v10h-10zm20 0h10v10h-10zm20 0h10v10h-10zm20 0h10v10h-10zm-60 20h10v10h-10zm20 0h10v10h-10zm20 0h10v10h-10zm20 0h10v10h-10zm-60 20h10v10h-10zm20 0h10v10h-10zm20 0h10v10h-10zm20 0h10v10h-10zm-60 20h10v10h-10zm20 0h10v10h-10zm20 0h10v10h-10zm20 0h10v10h-10zm-60 20h10v10h-10zm20 0h10v10h-10zm20 0h10v10h-10zm20 0h10v10h-10zm-60 20h10v10h-10zm20 0h10v10h-10zm20 0h10v10h-10zm20 0h10v10h-10zm-60 20h10v10h-10zm20 0h10v10h-10zm20 0h10v10h-10zm20 0h10v10h-10zm-60 20h10v10h-10zm20 0h10v10h-10zm20 0h10v10h-10zm20 0h10v10h-10zm-60 20h10v10h-10zm20 0h10v10h-10zm20 0h10v10h-10zm20 0h10v10h-10zm-60 20h10v10h-10zm20 0h10v10h-10zm20 0h10v10h-10zm20 0h10v10h-10zm-60 20h10v10h-10zm20 0h10v10h-10zm20 0h10v10h-10zm20 0h10v10h-10zm-60 20h10v10h-10zm20 0h10v10h-10zm20 0h10v10h-10zm20 0h10v10h-10z" fill="#E3F4FC"/><path fill="#F0FAFF" d="M444 51l96 40v372h-96z"/><path fill="#F0FAFF" d="M505 40h15v86h-15z"/><path fill="#E3F4FC" d="M479 121h26v26h-26zm0 46h26v26h-26zm0 46h26v26h-26zm0 46h26v26h-26zm0 46h26v26h-26zm0 46h26v26h-26zm0 46h26v26h-26z"/><path d="M771.204 457.515c.307-1.65-.068-2.66-1.124-3.028-1.583-.553-.87-.807-2.154-2.564-.659-.901-2.463-2.724-4.376-2.723-1.815.001-5.399 0-7.192 4.917-2.068-.547-3.354.585-3.858 3.398h18.704z" fill="#06DD77"/><path d="M757.216 442.523c10.913 3.713 29.355 4.764 31.402-14.085 2.047-18.85-6.012-20.763-5.295-33.101.718-12.339 8.548-18.142 8.548-30.373 0-5.335-7.12-15.536-8.548-21.114-2.386-9.319-5.815-10.423-8.205-10.697-7.415-.85-9.205 8.705-12.227 15.06-3.049 6.414-9.407 9.654-11.014 15.683-2.402 9.01 2.233 18.247 0 23.824-2.963 7.4-11.434 13.843-14.065 28.297-3.472 19.073 8.49 22.792 19.404 26.506z" fill="#C2F7DF"/><path d="M749.8 456.449c7.769-16.761 13.106-33.832 16.01-51.213 2.906-17.381 4.515-29.282 4.828-35.702" stroke="#4DB7ED" stroke-width="1.8" stroke-linecap="round"/><path d="M87.798 436.08c-20.421 2.246-33.162-.953-34.5-14.723-1.337-13.77 11.38-17.385 11.45-27.34.07-9.955-10.487-12.906-10.112-23.527.374-10.621 11.502-15.82 13.465-24.617 1.964-8.797 4.612-14.753 8.514-15.376 3.903-.623 11.187 1.434 13.883 15.376 2.695 13.942 14.77 13.677 15.674 24.617.904 10.939-4.145 13.278-2.862 21.257 1.282 7.979 10.16 14.15 10.19 23.88.03 9.731-5.282 18.208-25.702 20.453z" fill="#9CF3CA"/><path d="M88.641 450.406c.223-9.375-.996-23.791-3.655-43.247-2.66-19.456-4.555-38.742-5.686-57.859" stroke="#4EBCF4" stroke-width="1.8" stroke-linecap="round"/><path d="M94.452 456.752c.764-4.115-.17-6.633-2.804-7.552-3.95-1.38-7.912-1.043-11.113-5.424-3.201-4.381-6.093-5.32-10.54-3.793-4.447 1.527-8.483 6.19-15.34 6.246-4.57.038-6.855 3.546-6.855 10.523h46.652z" fill="#06DD77"/><g transform="translate(499.6 318.7)"><path d="M23 127.8V4.046C23 1.473 25.55 0 28.13 0h184.535c2.58 0 3.835 1.473 3.835 4.046V127.8H23z" fill="url(#a)"/><path fill="#DFFDFF" d="M30.6 118.8h179.1V9H30.6z"/><rect fill="#06DD77" x="93" y="24" width="56.7" height="11.7" rx=".9"/><g transform="translate(59 46)"><rect fill="#C3F7FA" width="34" height="28" rx=".9"/><rect fill="#B0E4FF" width="34" height="6" rx=".9"/></g><g transform="translate(103 46)"><rect fill="#C3F7FA" width="34" height="28" rx=".9"/><rect fill="#B0E4FF" width="34" height="6" rx=".9"/></g><g transform="translate(147 46)"><rect fill="#C3F7FA" width="34" height="28" rx=".9"/><rect fill="#B0E4FF" width="34" height="6" rx=".9"/></g><g transform="translate(59 84)"><rect fill="#C3F7FA" width="34" height="28" rx=".9"/><rect fill="#B0E4FF" width="34" height="6" rx=".9"/></g><g transform="translate(103 84)"><rect fill="#C3F7FA" width="34" height="28" rx=".9"/><rect fill="#B0E4FF" width="34" height="6" rx=".9"/></g><g transform="translate(147 84)"><rect fill="#C3F7FA" width="34" height="28" rx=".9"/><rect fill="#B0E4FF" width="34" height="6" rx=".9"/></g><path d="M241.723 133.15v-5.49c0-1.308-.67-1.66-1.962-1.66H2.503C1.21 126 0 126.352 0 127.66v5.49h.165s5.843 4.55 9.35 4.55H232.75c3.506 0 9.35-4.55 9.35-4.55h-.377" fill="#053D65"/><path d="M141.429 129.6H99.77c-3.47 0-3.47-3.6-3.47-3.6h48.6s0 3.6-3.471 3.6" fill="#218EC6"/></g><g transform="translate(94.6 311.5)"><path fill="#003961" d="M79.138 128.7h122.637v16.2H79.138z"/><path fill="#0A4D7C" d="M4.5 128.7H171v16.2H4.5z"/><path fill="#071F68" d="M32.4 0h77.4v16.2H32.4z"/><path fill="#163491" d="M32.4 0h67.5v16.2H32.4z"/><path fill="#156198" d="M98.215 13.5H204.5v120.6H98.215z"/><path fill="url(#b)" d="M0 13.5h175.5v120.6H0z"/><circle fill="#06DD77" cx="66.6" cy="7.2" r="2.7"/><rect fill="#D8D8D8" transform="matrix(1 0 0 -1 0 102.6)" x="171" y="33.3" width="9" height="36" rx="4.5"/><g transform="matrix(1 0 0 -1 45.9 112.5)"><use fill="#000" filter="url(#c)" xlink:href="#d"/><use fill="#06DD77" xlink:href="#d"/></g><path fill="#FFB17F" d="M45.9 37.8h9.9v18h-9.9z"/><path fill="#F9691F" d="M45.9 37.8h9.9v9h-9.9z"/><g transform="matrix(1 0 0 -1 82.8 112.5)"><use fill="#000" filter="url(#e)" xlink:href="#f"/><use fill="#06DD77" xlink:href="#f"/></g><path fill="#FFB17F" d="M82.8 87.3h9.9v18h-9.9z"/><path fill="#F9691F" d="M82.8 87.3h9.9v9h-9.9z"/><g transform="matrix(1 0 0 -1 119.7 112.5)"><use fill="#000" filter="url(#g)" xlink:href="#h"/><use fill="#06DD77" xlink:href="#h"/></g><path fill="#FFB17F" d="M119.7 56.7h9.9v18h-9.9z"/><path fill="#F9691F" d="M119.7 56.7h9.9v9h-9.9z"/></g><g transform="translate(698.5 376.3)"><path d="M43.2 74.78c0 2.805-2.73 5.32-5.56 5.32H5.2c-2.83 0-5.2-2.515-5.2-5.32V5.32C0 2.516 2.37 0 5.2 0h32.44c2.83 0 5.56 2.515 5.56 5.32v69.46" fill="#434544"/><path d="M43.2 74.78c0 2.805-2.73 5.32-5.56 5.32H5.2c-2.83 0-5.2-2.515-5.2-5.32V5.32C0 2.516 2.37 0 5.2 0h32.44c2.83 0 5.56 2.515 5.56 5.32v69.46" fill="url(#i)"/><path fill="#DFFDFF" d="M3 68.5h36.9V10H3z"/><rect fill="#06DD77" x="10" y="16.7" width="22.5" height="6.3" rx=".9"/><g transform="translate(10 28)"><rect fill="#C3F7FA" width="22.5" height="18.1" rx=".9"/><rect fill="#B0E4FF" width="22.5" height="4.1" rx=".9"/></g><g transform="translate(10 50)"><rect fill="#C3F7FA" width="22.5" height="18.1" rx=".9"/><rect fill="#B0E4FF" width="22.5" height="4.1" rx=".9"/></g><path d="M24.3 74.15a3.15 3.15 0 1 1-6.3-.001 3.15 3.15 0 0 1 6.3.001" fill="#3E8CFF"/><path d="M30.1 5.963a.826.826 0 0 1-.815.837h-15.47A.826.826 0 0 1 13 5.963v-.126c0-.463.365-.837.815-.837h15.47c.45 0 .815.374.815.837v.126" fill="#82D2FF"/></g><rect fill="#06DD77" opacity=".2" x="608.75" y="278" width="70.5" height="20" rx="1.8"/><g transform="translate(599 259)"><rect fill="#06DD77" width="88.2" height="27" rx="1.8"/><path d="M12.9 8.2h62.308v3.6H12.9zm0 7h45.619v3.6H12.9z" fill="#B0FFD9"/></g><path d="M179.847 293.47c-9.874-9.875-25.883-9.875-35.757 0" stroke="#218EC6" stroke-width="5.4" stroke-linecap="round"/><path d="M192.619 278.16c-16.878-16.878-44.241-16.878-61.119 0" stroke="#218EC6" stroke-width="5.4" opacity=".6" stroke-linecap="round"/><path d="M204.319 263.31c-23.588-23.588-61.831-23.588-85.419 0" stroke="#218EC6" stroke-width="5.4" opacity=".2" stroke-linecap="round"/><path d="M457.9 82v64.794M386.9 93v43.208" stroke="url(#j)" stroke-width="2.7"/><g transform="translate(362)"><rect fill="url(#k)" x=".1" y="54.8" width="116" height="50.5" rx="3.6"/><path d="M61.88 2.7h-7.56c-1.392 0-2.52 1.141-2.52 2.55v97.5c0 1.409 1.128 2.55 2.52 2.55h7.56c1.392 0 2.52-1.141 2.52-2.55V5.25c0-1.409-1.128-2.55-2.52-2.55z" fill="url(#l)"/><path d="M61.88.9h-7.56c-1.392 0-2.52 1.141-2.52 2.55v97.5c0 1.409 1.128 2.55 2.52 2.55h7.56c1.392 0 2.52-1.141 2.52-2.55V3.45C64.4 2.04 63.272.9 61.88.9z" fill="url(#m)"/><rect fill="#00C467" x=".15" y="2.7" width="115.9" height="64.8" rx="3.6"/><rect fill="#06DD77" x=".1" width="116" height="64.8" rx="3.6"/><text font-family="OpenSans-Bold, Open Sans" font-size="32.4" font-weight="bold" letter-spacing="3" fill="#FFF"><tspan x="27" y="45">BI</tspan> <tspan x="65.495" y="45">D</tspan></text></g><g opacity=".8" transform="translate(540 82)"><path d="M36.403 0h-4.838c-.89 0-1.613.73-1.613 1.631v62.402c0 .9.722 1.631 1.613 1.631h4.838c.89 0 1.613-.73 1.613-1.631V1.63c0-.9-.722-1.631-1.613-1.631z" fill="#2C95C8"/><rect fill="#C2F7DF" width="67.968" height="41.472" rx="2.304"/><text font-family="OpenSans-Semibold, Open Sans" font-size="20.736" font-weight="500" letter-spacing=".648" fill="#78D1D5"><tspan x="16.128" y="28.336">BID</tspan></text></g><g opacity=".8" transform="translate(283 118)"><path d="M32.763 0h-4.355a1.46 1.46 0 0 0-1.451 1.468V57.63c0 .811.65 1.469 1.451 1.469h4.355a1.46 1.46 0 0 0 1.451-1.469V1.47A1.46 1.46 0 0 0 32.763.001z" fill="#2C95C8"/><rect fill="#C2F7DF" width="61.171" height="37.325" rx="2.074"/><text font-family="OpenSans-Semibold, Open Sans" font-size="18.662" font-weight="500" letter-spacing=".583" fill="#78D1D5"><tspan x="14.515" y="25.702">BID</tspan></text></g><g opacity=".5" transform="translate(217 86)"><path d="M21.842 0h-2.903a.973.973 0 0 0-.968.979v37.44c0 .541.433.98.968.98h2.903a.973.973 0 0 0 .968-.98V.98a.973.973 0 0 0-.968-.98z" fill="#2C95C8"/><rect fill="#C2F7DF" width="40.781" height="24.883" rx="1.382"/><text font-family="OpenSans-Semibold, Open Sans" font-size="12.442" font-weight="500" letter-spacing=".389" fill="#78D1D5"><tspan x="9.677" y="16.802">BID</tspan></text></g><g opacity=".5" transform="translate(488 143)"><path d="M21.842 0h-2.903a.973.973 0 0 0-.968.979v37.44c0 .541.433.98.968.98h2.903a.973.973 0 0 0 .968-.98V.98a.973.973 0 0 0-.968-.98z" fill="#2C95C8"/><rect fill="#C2F7DF" width="40.781" height="24.883" rx="1.382"/><text font-family="OpenSans-Semibold, Open Sans" font-size="12.442" font-weight="500" letter-spacing=".389" fill="#78D1D5"><tspan x="9.677" y="16.802">BID</tspan></text></g><rect fill="#BCE8FF" x="1" y="455.5" width="813.6" height="4" rx="2"/></g></svg>