<svg width="450" height="353" xmlns="http://www.w3.org/2000/svg"><defs><linearGradient x1="83.685%" y1="0%" x2="37.824%" y2="100%" id="a"><stop stop-color="#196A95" offset="0%"/><stop stop-color="#0F3753" offset="100%"/></linearGradient><linearGradient x1="83.685%" y1="0%" x2="38.747%" y2="97.989%" id="b"><stop stop-color="#FFF" stop-opacity=".188" offset="0%"/><stop stop-color="#FFF" stop-opacity=".038" offset="100%"/></linearGradient><linearGradient x1="41.546%" y1="100%" x2="73.392%" y2="12.403%" id="c"><stop stop-color="#FFF" stop-opacity=".678" offset="0%"/><stop stop-color="#FFF" offset="100%"/></linearGradient><linearGradient x1="50%" y1="0%" x2="50%" y2="100%" id="d"><stop stop-color="#FFF" stop-opacity="0" offset="0%"/><stop stop-color="#00F1FF" stop-opacity=".287" offset="100%"/></linearGradient><linearGradient x1="77.178%" y1="-10.648%" x2="44.779%" y2="132.007%" id="e"><stop stop-color="#208BC4" offset="0%"/><stop stop-color="#163592" offset="100%"/></linearGradient></defs><g fill="none" fill-rule="evenodd"><g transform="translate(75.5 91.4)"><path d="M210.694 250.21h-3.057s-17.954-4.77-17.954-54.795c0-14.736-79.286-14.727-79.286 1.097 0 48.166-18.422 53.699-18.422 53.699h-2.48c-2.213 0-3.995 1.725-3.995 3.933v1.998c0 2.208 1.782 3.958 3.995 3.958h121.2c2.212 0 4.405-1.75 4.405-3.958v-1.998c0-2.208-2.193-3.933-4.406-3.933" fill="#053D65"/><path d="M291.487 0H10.343C4.925 0 0 2.845 0 8.264v196.25c0 5.42 4.925 12.386 10.343 12.386h281.144c5.418 0 8.213-6.966 8.213-12.386V8.264c0-5.42-2.795-8.264-8.213-8.264" fill="url(#a)"/><path d="M91.584 216.9L220.107 0h71.38c5.418 0 8.213 2.845 8.213 8.264v196.25c0 5.42-2.795 12.386-8.213 12.386H91.584z" fill="url(#b)"/><path fill="#E3F1F2" d="M14.4 171h270.9V16.2H14.4z"/><g transform="translate(73.1 126.3)"><rect fill="#C3F7FA" width="34" height="28" rx=".9"/><rect fill="#B0E4FF" width="34" height="6" rx=".9"/></g><g transform="translate(193.1 126.3)"><rect fill="#C3F7FA" width="34" height="28" rx=".9"/><rect fill="#B0E4FF" width="34" height="6" rx=".9"/></g><rect fill="#06DD77" x="73" y="87" width="154" height="24.3" rx=".9"/><path d="M118.782 171l91.726-154.8H285.3V171H118.782z" fill="url(#c)" opacity=".4"/></g><path fill="url(#d)" d="M90.9 263.4h270.9L451.8.6H.9z" transform="translate(-1 -1)"/><g transform="translate(182.6 186.8)"><rect fill="#F2B391" x="65.7" y="50.4" width="17.1" height="16.2" rx="8.1"/><rect fill="#F2B391" x="4.5" y="50.4" width="17.1" height="16.2" rx="8.1"/><rect fill="#F2B391" x="36" y="78.3" width="17.1" height="24.3" rx="8.55"/><path d="M44.1 15.3c18.391 0 33.3 5.909 33.3 24.3v13.5c0 18.391-14.909 37.8-33.3 37.8S10.8 71.491 10.8 53.1V39.6c0-18.391 14.909-24.3 33.3-24.3z" fill="#FCCBA3"/><path d="M77.65 50.501c.84-5.27 1.384-10.782 1.634-16.54.376-8.635-.661-18.334-6.792-18.334 0 0 .713-2.62-1.978-6.57-2.69-3.952-14.52-12.038-33.865-7.918C23.752 3.885 12.435 4.05 2.7 1.637c.356 10.807 2.052 19.63 5.09 26.465.61 8.517 1.747 15.983 3.41 22.4 4.286 22.117 15.494 33.066 33.623 32.846 18.13-.221 29.072-11.17 32.827-32.847z" fill="#001B2E"/><path d="M33.3 96.3h21.6c18.391 0 33.3 14.909 33.3 33.3v36H0v-36c0-18.391 14.909-33.3 33.3-33.3z" fill="#8BCEFF"/></g><path d="M184.5 288.6h84.6c9.941 0 18 8.059 18 18v46.8H166.5v-46.8c0-9.941 8.059-18 18-18z" fill="url(#e)" transform="translate(-1 -1)"/><path d="M76.543 134.6h42.54v5.73c0 11.747-9.522 21.27-21.27 21.27-11.747 0-21.27-9.523-21.27-21.27v-5.73z" fill="#F02A2A"/><path d="M119.08 134.6h42.54v5.73c0 11.747-9.523 21.27-21.27 21.27s-21.27-9.523-21.27-21.27v-5.73z" fill="#5DCAF4"/><path d="M161.616 134.6h42.541v5.73c0 11.747-9.523 21.27-21.27 21.27-11.748 0-21.27-9.523-21.27-21.27v-5.73z" fill="#F02A2A"/><path d="M204.153 134.6h42.541v5.73c0 11.747-9.523 21.27-21.27 21.27-11.748 0-21.271-9.523-21.271-21.27v-5.73z" fill="#5DCAF4"/><path d="M246.69 134.6h42.54v5.73c0 11.747-9.522 21.27-21.27 21.27-11.747 0-21.27-9.523-21.27-21.27v-5.73zm85.073 0h42.541v5.73c0 11.747-9.523 21.27-21.27 21.27-11.748 0-21.27-9.523-21.27-21.27v-5.73z" fill="#F02A2A"/><path d="M289.227 134.6h42.54v5.73c0 11.747-9.523 21.27-21.27 21.27s-21.27-9.523-21.27-21.27v-5.73z" fill="#5DCAF4"/><path fill="#D00202" d="M89.835 107.6h38.11l-8.861 27H76.543z"/><path fill="#45AAD1" d="M127.941 107.6h38.11l-4.43 27h-42.542z"/><path fill="#D00202" d="M166.047 107.6h38.11v27h-42.54z"/><path fill="#45AAD1" d="M204.153 107.6h42.541v27h-42.541z"/><path fill="#D00202" d="M246.69 107.6h38.11l4.43 27h-42.54zm76.211 0h38.11l13.293 27h-42.54z"/><path fill="#45AAD1" d="M284.796 107.6h38.11l8.862 27h-42.541z"/></g></svg>