<svg id="Layer_1" xmlns="http://www.w3.org/2000/svg" viewBox="0 0 1440 163.3" enable-background="new 0 0 1440 163.3"><style>.st1{fill:#fff;fill-opacity:.1}</style><filter filterUnits="objectBoundingBox" height="103.4%" id="filter-5" width="102.2%" x="-1.1%" y="-1.6%"><feOffset dy="1" in="SourceAlpha" result="shadowOffsetOuter1"/><feGaussianBlur in="shadowOffsetOuter1" result="shadowBlurOuter1" stdDeviation="4"/><feComposite in="shadowBlurOuter1" in2="SourceAlpha" operator="out" result="shadowBlurOuter1"/><feColorMatrix in="shadowBlurOuter1" values="0 0 0 0 0 0 0 0 0 0 0 0 0 0 0 0 0 0 0.0137284873 0"/></filter><filter filterUnits="objectBoundingBox" height="103.4%" id="filter-3" width="102.3%" x="-1.1%" y="-1.6%"><feOffset dy="1" in="SourceAlpha" result="shadowOffsetOuter1"/><feGaussianBlur in="shadowOffsetOuter1" result="shadowBlurOuter1" stdDeviation="4"/><feComposite in="shadowBlurOuter1" in2="SourceAlpha" operator="out" result="shadowBlurOuter1"/><feColorMatrix in="shadowBlurOuter1" values="0 0 0 0 0 0 0 0 0 0 0 0 0 0 0 0 0 0 0.0137284873 0"/></filter><path d="M155.6.9H-1c.5.7.8 1.6.8 2.7v65.1c65.1 18.4 136.6 28.6 211.7 28.6C354 97.3 483.7 60.6 580.9.5H157.6c-.5.2-1.2.4-2 .4z" filter="url(#filter-3)"/><path class="st1" d="M155.6.9H-1c.5.7.8 1.6.8 2.7v65.1c65.1 18.4 136.6 28.6 211.7 28.6C354 97.3 483.7 60.6 580.9.5H157.6c-.5.2-1.2.4-2 .4z"/><path d="M155.6.9H-1c.5.7.8 1.6.8 2.7v149.9C115.6 122.6 212.2 68.5 275.3.4H157.6c-.5.3-1.2.5-2 .5z" filter="url(#filter-5)"/><path class="st1" d="M155.6.9H-1c.5.7.8 1.6.8 2.7v149.9C115.6 122.6 212.2 68.5 275.3.4H157.6c-.5.3-1.2.5-2 .5zM776.7.5H279.3c106.5 80.6 266.4 131.8 445.2 131.8 179.1 0 339.2-51.4 445.7-132.2H778.7c-.6.2-1.2.4-2 .4z"/><path class="st1" d="M1440.4.1H997.1c105.5 69.2 253.5 112.2 417.4 112.2 8.7 0 17.3-.1 25.9-.4V2.8c0-.4 0-.7.1-1.1-.1-.3-.1-.6-.1-1V.1z"/><path d="M778 .3c-.4.1-.9.2-1.3.2h-619c-.6.3-1.3.4-2.1.4H0v55.6c85-20.9 136.6-30.8 273.5-31.8S758 102.1 1000 94.9s394.7-38.4 440.1-57.2V.3H778z" fill="#f8fcff"/></svg>