<svg xmlns="http://www.w3.org/2000/svg" viewBox="0 0 1439.88 249.93"><defs><style>.b{fill:#fff;fill-opacity:.1}</style><filter id="a" x="-4.96" y="-1.75" width="101.1" height="101.1"><feOffset result="shadowOffsetOuter1" dy="1" in="SourceAlpha"/><feGaussianBlur result="shadowBlurOuter1" stdDeviation="4" in="shadowOffsetOuter1"/><feComposite result="shadowBlurOuter1" operator="out" in="shadowBlurOuter1" in2="SourceAlpha"/><feColorMatrix values="0 0 0 0 0 0 0 0 0 0 0 0 0 0 0 0 0 0 0.01 0" in="shadowBlurOuter1"/></filter><filter id="b" x="-4.96" y="-1.75" width="101.1" height="101.1"><feOffset result="shadowOffsetOuter1" dy="1" in="SourceAlpha"/><feGaussianBlur result="shadowBlurOuter1" stdDeviation="4" in="shadowOffsetOuter1"/><feComposite result="shadowBlurOuter1" operator="out" in="shadowBlurOuter1" in2="SourceAlpha"/><feColorMatrix values="0 0 0 0 0 0 0 0 0 0 0 0 0 0 0 0 0 0 0.01 0" in="shadowBlurOuter1"/></filter><filter id="c" x="-4.96" y="-1.75" width="101.1" height="101.1"><feOffset result="shadowOffsetOuter1" dy="1" in="SourceAlpha"/><feGaussianBlur result="shadowBlurOuter1" stdDeviation="4" in="shadowOffsetOuter1"/><feComposite result="shadowBlurOuter1" operator="out" in="shadowBlurOuter1" in2="SourceAlpha"/><feColorMatrix values="0 0 0 0 0 0 0 0 0 0 0 0 0 0 0 0 0 0 0.01 0" in="shadowBlurOuter1"/></filter><filter id="d" x="-4.96" y="-1.75" width="101" height="101.1"><feOffset result="shadowOffsetOuter1" dy="1" in="SourceAlpha"/><feGaussianBlur result="shadowBlurOuter1" stdDeviation="4" in="shadowOffsetOuter1"/><feComposite result="shadowBlurOuter1" operator="out" in="shadowBlurOuter1" in2="SourceAlpha"/><feColorMatrix values="0 0 0 0 0 0 0 0 0 0 0 0 0 0 0 0 0 0 0.01 0" in="shadowBlurOuter1"/></filter><filter id="e" x="-4.96" y="-1.75" width="101" height="101.1"><feOffset result="shadowOffsetOuter1" dy="1" in="SourceAlpha"/><feGaussianBlur result="shadowBlurOuter1" stdDeviation="4" in="shadowOffsetOuter1"/><feComposite result="shadowBlurOuter1" operator="out" in="shadowBlurOuter1" in2="SourceAlpha"/><feColorMatrix values="0 0 0 0 0 0 0 0 0 0 0 0 0 0 0 0 0 0 0.01 0" in="shadowBlurOuter1"/></filter></defs><path d="M1435.18 250.63C1254.61 127.68 1018.23 56.28 724 56.28S193.35 127.69 12.78 250.63z" transform="translate(-4.46 -1.25)" filter="url(#a)"/><path class="b" d="M1430.72 249.38C1250.15 126.43 1013.77 55.03 719.54 55.03S188.89 126.44 8.32 249.38z"/><path d="M1444.24 189.86a5.22 5.22 0 0 1 .1-1.06 4.59 4.59 0 0 1-.06-.76V70.41A1163.67 1163.67 0 0 0 1208 46.28c-244.07 0-470.5 75.48-657.24 204.35h893.51z" transform="translate(-4.46 -1.25)" filter="url(#b)"/><path class="b" d="M1439.78 188.61a5.22 5.22 0 0 1 .1-1.06 4.59 4.59 0 0 1-.06-.76V69.16a1163.67 1163.67 0 0 0-236.28-24.13c-244.07 0-470.5 75.48-657.24 204.35h893.51z"/><path d="M4.46 251.18a5 5 0 0 1 2.34-.55h889.1C709.44 122.37 483.55 47.28 240.12 47.28a1163.41 1163.41 0 0 0-235.61 24V84a5.39 5.39 0 0 1 0 .71v166.47z" transform="translate(-4.46 -1.25)" filter="url(#c)"/><path class="b" d="M0 249.93a5 5 0 0 1 2.34-.55h889.1C704.98 121.12 479.09 46.03 235.66 46.03a1163.41 1163.41 0 0 0-235.61 24v12.72a5.39 5.39 0 0 1 0 .71v166.47z"/><path d="M4.46 251.18a5 5 0 0 1 2.34-.55h643.27C462.41 114.12 237.37 24.45 4.47 1.25V84a5.39 5.39 0 0 1 0 .71v166.47z" transform="translate(-4.46 -1.25)" filter="url(#d)"/><path class="b" d="M0 249.93a5 5 0 0 1 2.34-.55h643.27C457.95 112.87 232.91 23.2.01 0v82.75a5.39 5.39 0 0 1 0 .71v166.47z"/><path d="M1444.24 189.86a5.22 5.22 0 0 1 .1-1.06 4.59 4.59 0 0 1-.06-.76V2.18c-232.62 23-457.43 112.35-645 248.45h645z" transform="translate(-4.46 -1.25)" filter="url(#e)"/><path class="b" d="M1439.78 188.61a5.22 5.22 0 0 1 .1-1.06 4.59 4.59 0 0 1-.06-.76V.93c-232.62 23-457.43 112.35-645 248.45h645z"/><path d="M1439.78 188.61a5.22 5.22 0 0 1 .1-1.06 4.59 4.59 0 0 1-.06-.76V80.11c-235.5 49.24-449.28 157.78-719.84 157.78-269.44 0-507.06-106.41-719.93-157.8v2.66a3.68 3.68 0 0 1 0 .58v166.6a5 5 0 0 1 2.34-.55h1437.39z" fill="#f8fcff"/></svg>